<mxfile host="app.diagrams.net" modified="2020-08-16T17:30:35.674Z" agent="5.0 (Macintosh; Intel Mac OS X 10_14_6) AppleWebKit/605.1.15 (KHTML, like Gecko) Version/13.1.2 Safari/605.1.15" etag="_XejfOhjx2_1XykMeOkN" version="13.5.5" type="github">
  <diagram id="frB2AARtGY0DQCCk_Cin" name="Page-1">
    <mxGraphModel dx="1426" dy="812" grid="1" gridSize="10" guides="1" tooltips="1" connect="1" arrows="1" fold="1" page="1" pageScale="1" pageWidth="1100" pageHeight="850" math="0" shadow="0">
      <root>
        <mxCell id="0" />
        <mxCell id="1" parent="0" />
        <mxCell id="76j5sk3wCB9ZU_lOgHT8-112" value="" style="rounded=1;whiteSpace=wrap;html=1;" parent="1" vertex="1">
          <mxGeometry x="67" y="285" width="60" height="25" as="geometry" />
        </mxCell>
        <mxCell id="M235wbPJO0eQFkBtWyqc-112" value="" style="rounded=1;whiteSpace=wrap;html=1;arcSize=50;" parent="1" vertex="1">
          <mxGeometry x="462" y="170" width="400" height="60" as="geometry" />
        </mxCell>
        <mxCell id="76j5sk3wCB9ZU_lOgHT8-92" value="" style="shape=parallelogram;perimeter=parallelogramPerimeter;whiteSpace=wrap;html=1;" parent="1" vertex="1">
          <mxGeometry x="707" y="190" width="50" height="20" as="geometry" />
        </mxCell>
        <mxCell id="M235wbPJO0eQFkBtWyqc-65" value="" style="rounded=1;whiteSpace=wrap;html=1;" parent="1" vertex="1">
          <mxGeometry x="859.5" y="285" width="105" height="60" as="geometry" />
        </mxCell>
        <mxCell id="76j5sk3wCB9ZU_lOgHT8-72" value="USB Regen" style="rounded=1;whiteSpace=wrap;html=1;" parent="1" vertex="1">
          <mxGeometry x="761" y="285" width="60" height="50" as="geometry" />
        </mxCell>
        <mxCell id="M235wbPJO0eQFkBtWyqc-36" value="" style="rounded=1;whiteSpace=wrap;html=1;" parent="1" vertex="1">
          <mxGeometry x="317" y="365" width="50" height="20" as="geometry" />
        </mxCell>
        <mxCell id="M235wbPJO0eQFkBtWyqc-79" value="" style="rounded=1;whiteSpace=wrap;html=1;opacity=50;fillColor=#FFFF00;arcSize=33;fillOpacity=50;strokeOpacity=50;textOpacity=50;strokeColor=#A8A8A8;fontColor=#A8A8A8;" parent="1" vertex="1">
          <mxGeometry x="837" y="492.5" width="140" height="140" as="geometry" />
        </mxCell>
        <mxCell id="M235wbPJO0eQFkBtWyqc-98" value="7V" style="ellipse;whiteSpace=wrap;html=1;aspect=fixed;fillColor=none;fillOpacity=50;strokeColor=#A8A8A8;fontColor=#A8A8A8;" parent="1" vertex="1">
          <mxGeometry x="851" y="562" width="25" height="25" as="geometry" />
        </mxCell>
        <mxCell id="M235wbPJO0eQFkBtWyqc-96" value="15V" style="ellipse;whiteSpace=wrap;html=1;aspect=fixed;fillColor=none;fillOpacity=50;strokeColor=#A8A8A8;fontColor=#A8A8A8;" parent="1" vertex="1">
          <mxGeometry x="945" y="561" width="25" height="25" as="geometry" />
        </mxCell>
        <mxCell id="M235wbPJO0eQFkBtWyqc-1" value="" style="rounded=1;whiteSpace=wrap;html=1;" parent="1" vertex="1">
          <mxGeometry x="210" y="453.5" width="120" height="26.5" as="geometry" />
        </mxCell>
        <mxCell id="M235wbPJO0eQFkBtWyqc-2" value="Switch" style="text;html=1;strokeColor=none;fillColor=none;align=center;verticalAlign=middle;whiteSpace=wrap;rounded=0;" parent="1" vertex="1">
          <mxGeometry x="225" y="455.5" width="40" height="20" as="geometry" />
        </mxCell>
        <mxCell id="M235wbPJO0eQFkBtWyqc-3" value="" style="rounded=1;whiteSpace=wrap;html=1;" parent="1" vertex="1">
          <mxGeometry x="247" y="530" width="120" height="60" as="geometry" />
        </mxCell>
        <mxCell id="M235wbPJO0eQFkBtWyqc-5" value="LPS&lt;br&gt;1,5A" style="text;html=1;strokeColor=none;fillColor=none;align=center;verticalAlign=middle;whiteSpace=wrap;rounded=0;" parent="1" vertex="1">
          <mxGeometry x="287" y="550" width="40" height="20" as="geometry" />
        </mxCell>
        <mxCell id="M235wbPJO0eQFkBtWyqc-6" value="12V" style="ellipse;whiteSpace=wrap;html=1;aspect=fixed;" parent="1" vertex="1">
          <mxGeometry x="257" y="545" width="30" height="30" as="geometry" />
        </mxCell>
        <mxCell id="M235wbPJO0eQFkBtWyqc-7" value="5V" style="ellipse;whiteSpace=wrap;html=1;aspect=fixed;fillColor=none;" parent="1" vertex="1">
          <mxGeometry x="327" y="545" width="30" height="30" as="geometry" />
        </mxCell>
        <mxCell id="M235wbPJO0eQFkBtWyqc-11" value="" style="endArrow=none;html=1;exitX=0.5;exitY=0;exitDx=0;exitDy=0;entryX=0.5;entryY=1;entryDx=0;entryDy=0;" parent="1" source="M235wbPJO0eQFkBtWyqc-6" target="M235wbPJO0eQFkBtWyqc-1" edge="1">
          <mxGeometry width="50" height="50" relative="1" as="geometry">
            <mxPoint x="287" y="480" as="sourcePoint" />
            <mxPoint x="272" y="490" as="targetPoint" />
          </mxGeometry>
        </mxCell>
        <mxCell id="M235wbPJO0eQFkBtWyqc-12" value="" style="rounded=1;whiteSpace=wrap;html=1;fillColor=#99FF99;" parent="1" vertex="1">
          <mxGeometry x="387" y="530" width="120" height="60" as="geometry" />
        </mxCell>
        <mxCell id="M235wbPJO0eQFkBtWyqc-13" value="LPS&lt;br&gt;1,5A" style="text;html=1;strokeColor=none;fillColor=none;align=center;verticalAlign=middle;whiteSpace=wrap;rounded=0;" parent="1" vertex="1">
          <mxGeometry x="422" y="545" width="50" height="30" as="geometry" />
        </mxCell>
        <mxCell id="M235wbPJO0eQFkBtWyqc-14" value="5V" style="ellipse;whiteSpace=wrap;html=1;aspect=fixed;" parent="1" vertex="1">
          <mxGeometry x="392" y="545" width="30" height="30" as="geometry" />
        </mxCell>
        <mxCell id="M235wbPJO0eQFkBtWyqc-15" value="5V" style="ellipse;whiteSpace=wrap;html=1;aspect=fixed;" parent="1" vertex="1">
          <mxGeometry x="467" y="545" width="30" height="30" as="geometry" />
        </mxCell>
        <mxCell id="M235wbPJO0eQFkBtWyqc-16" value="" style="rounded=1;whiteSpace=wrap;html=1;" parent="1" vertex="1">
          <mxGeometry x="517" y="530" width="120" height="60" as="geometry" />
        </mxCell>
        <mxCell id="M235wbPJO0eQFkBtWyqc-17" value="LPS&lt;br&gt;0,6A" style="text;html=1;strokeColor=none;fillColor=none;align=center;verticalAlign=middle;whiteSpace=wrap;rounded=0;" parent="1" vertex="1">
          <mxGeometry x="552" y="545" width="50" height="30" as="geometry" />
        </mxCell>
        <mxCell id="M235wbPJO0eQFkBtWyqc-18" value="9V" style="ellipse;whiteSpace=wrap;html=1;aspect=fixed;" parent="1" vertex="1">
          <mxGeometry x="522" y="545" width="30" height="30" as="geometry" />
        </mxCell>
        <mxCell id="M235wbPJO0eQFkBtWyqc-19" value="9V" style="ellipse;whiteSpace=wrap;html=1;aspect=fixed;" parent="1" vertex="1">
          <mxGeometry x="597" y="545" width="30" height="30" as="geometry" />
        </mxCell>
        <mxCell id="M235wbPJO0eQFkBtWyqc-20" value="" style="rounded=1;whiteSpace=wrap;html=1;" parent="1" vertex="1">
          <mxGeometry x="647" y="530" width="130" height="60" as="geometry" />
        </mxCell>
        <mxCell id="M235wbPJO0eQFkBtWyqc-21" value="LPS&lt;br&gt;3,5A" style="text;html=1;strokeColor=none;fillColor=none;align=center;verticalAlign=middle;whiteSpace=wrap;rounded=0;" parent="1" vertex="1">
          <mxGeometry x="692" y="545" width="50" height="30" as="geometry" />
        </mxCell>
        <mxCell id="M235wbPJO0eQFkBtWyqc-23" value="5V" style="ellipse;whiteSpace=wrap;html=1;aspect=fixed;" parent="1" vertex="1">
          <mxGeometry x="652" y="545" width="30" height="30" as="geometry" />
        </mxCell>
        <mxCell id="M235wbPJO0eQFkBtWyqc-24" value="5V" style="ellipse;whiteSpace=wrap;html=1;aspect=fixed;strokeColor=#82b366;fillColor=#00FF00;" parent="1" vertex="1">
          <mxGeometry x="737" y="545" width="30" height="30" as="geometry" />
        </mxCell>
        <mxCell id="M235wbPJO0eQFkBtWyqc-25" value="" style="rounded=1;whiteSpace=wrap;html=1;" parent="1" vertex="1">
          <mxGeometry x="257" y="690" width="740" height="70" as="geometry" />
        </mxCell>
        <mxCell id="M235wbPJO0eQFkBtWyqc-26" value="" style="ellipse;whiteSpace=wrap;html=1;aspect=fixed;rotation=0;direction=south;" parent="1" vertex="1">
          <mxGeometry x="282" y="700" width="50" height="50" as="geometry" />
        </mxCell>
        <mxCell id="M235wbPJO0eQFkBtWyqc-27" value="" style="ellipse;whiteSpace=wrap;html=1;aspect=fixed;rotation=0;direction=south;" parent="1" vertex="1">
          <mxGeometry x="422" y="700" width="50" height="50" as="geometry" />
        </mxCell>
        <mxCell id="M235wbPJO0eQFkBtWyqc-28" value="" style="ellipse;whiteSpace=wrap;html=1;aspect=fixed;rotation=0;direction=south;" parent="1" vertex="1">
          <mxGeometry x="552" y="700" width="50" height="50" as="geometry" />
        </mxCell>
        <mxCell id="M235wbPJO0eQFkBtWyqc-29" value="" style="ellipse;whiteSpace=wrap;html=1;aspect=fixed;rotation=0;direction=south;" parent="1" vertex="1">
          <mxGeometry x="687" y="700" width="50" height="50" as="geometry" />
        </mxCell>
        <mxCell id="M235wbPJO0eQFkBtWyqc-30" value="" style="ellipse;whiteSpace=wrap;html=1;aspect=fixed;rotation=0;direction=south;" parent="1" vertex="1">
          <mxGeometry x="767" y="700" width="50" height="50" as="geometry" />
        </mxCell>
        <mxCell id="M235wbPJO0eQFkBtWyqc-31" value="" style="ellipse;whiteSpace=wrap;html=1;aspect=fixed;rotation=0;direction=south;" parent="1" vertex="1">
          <mxGeometry x="852" y="700" width="50" height="50" as="geometry" />
        </mxCell>
        <mxCell id="M235wbPJO0eQFkBtWyqc-32" value="" style="endArrow=none;html=1;fillColor=#f8cecc;strokeColor=#B85450;exitX=0;exitY=0.5;exitDx=0;exitDy=0;entryX=0.5;entryY=1;entryDx=0;entryDy=0;" parent="1" source="M235wbPJO0eQFkBtWyqc-26" target="M235wbPJO0eQFkBtWyqc-3" edge="1">
          <mxGeometry width="50" height="50" relative="1" as="geometry">
            <mxPoint x="477" y="670" as="sourcePoint" />
            <mxPoint x="527" y="620" as="targetPoint" />
          </mxGeometry>
        </mxCell>
        <mxCell id="M235wbPJO0eQFkBtWyqc-33" value="" style="endArrow=none;html=1;fillColor=#f8cecc;strokeColor=#B85450;exitX=0;exitY=0.5;exitDx=0;exitDy=0;entryX=0.5;entryY=1;entryDx=0;entryDy=0;" parent="1" source="M235wbPJO0eQFkBtWyqc-27" target="M235wbPJO0eQFkBtWyqc-12" edge="1">
          <mxGeometry width="50" height="50" relative="1" as="geometry">
            <mxPoint x="322" y="710" as="sourcePoint" />
            <mxPoint x="317" y="600" as="targetPoint" />
          </mxGeometry>
        </mxCell>
        <mxCell id="M235wbPJO0eQFkBtWyqc-34" value="" style="endArrow=none;html=1;fillColor=#f8cecc;strokeColor=#B85450;exitX=0;exitY=0.5;exitDx=0;exitDy=0;entryX=0.5;entryY=1;entryDx=0;entryDy=0;" parent="1" source="M235wbPJO0eQFkBtWyqc-28" target="M235wbPJO0eQFkBtWyqc-16" edge="1">
          <mxGeometry width="50" height="50" relative="1" as="geometry">
            <mxPoint x="392" y="710" as="sourcePoint" />
            <mxPoint x="457" y="600" as="targetPoint" />
          </mxGeometry>
        </mxCell>
        <mxCell id="M235wbPJO0eQFkBtWyqc-35" value="" style="endArrow=none;html=1;fillColor=#f8cecc;strokeColor=#B85450;entryX=0.5;entryY=1;entryDx=0;entryDy=0;" parent="1" target="M235wbPJO0eQFkBtWyqc-20" edge="1">
          <mxGeometry width="50" height="50" relative="1" as="geometry">
            <mxPoint x="712" y="645" as="sourcePoint" />
            <mxPoint x="587" y="600" as="targetPoint" />
          </mxGeometry>
        </mxCell>
        <mxCell id="M235wbPJO0eQFkBtWyqc-87" style="edgeStyle=orthogonalEdgeStyle;rounded=0;orthogonalLoop=1;jettySize=auto;html=1;exitX=0.75;exitY=1;exitDx=0;exitDy=0;entryX=1;entryY=0.75;entryDx=0;entryDy=0;strokeColor=#7EA6E0;" parent="1" source="M235wbPJO0eQFkBtWyqc-39" target="M235wbPJO0eQFkBtWyqc-48" edge="1">
          <mxGeometry relative="1" as="geometry" />
        </mxCell>
        <mxCell id="M235wbPJO0eQFkBtWyqc-39" value="" style="rounded=1;whiteSpace=wrap;html=1;arcSize=50;" parent="1" vertex="1">
          <mxGeometry x="497" y="440" width="100" height="40" as="geometry" />
        </mxCell>
        <mxCell id="M235wbPJO0eQFkBtWyqc-40" value="" style="rounded=1;whiteSpace=wrap;html=1;arcSize=50;" parent="1" vertex="1">
          <mxGeometry x="537" y="380" width="95" height="40" as="geometry" />
        </mxCell>
        <mxCell id="M235wbPJO0eQFkBtWyqc-41" value="" style="ellipse;whiteSpace=wrap;html=1;aspect=fixed;" parent="1" vertex="1">
          <mxGeometry x="529.5" y="457.5" width="15" height="15" as="geometry" />
        </mxCell>
        <mxCell id="M235wbPJO0eQFkBtWyqc-42" value="" style="ellipse;whiteSpace=wrap;html=1;aspect=fixed;" parent="1" vertex="1">
          <mxGeometry x="602" y="397.5" width="15" height="15" as="geometry" />
        </mxCell>
        <mxCell id="M235wbPJO0eQFkBtWyqc-43" value="" style="endArrow=none;html=1;fillColor=#f8cecc;strokeColor=#B85450;exitX=0.5;exitY=0;exitDx=0;exitDy=0;" parent="1" source="M235wbPJO0eQFkBtWyqc-18" edge="1">
          <mxGeometry width="50" height="50" relative="1" as="geometry">
            <mxPoint x="762" y="555" as="sourcePoint" />
            <mxPoint x="537" y="470" as="targetPoint" />
          </mxGeometry>
        </mxCell>
        <mxCell id="M235wbPJO0eQFkBtWyqc-44" value="" style="endArrow=none;html=1;fillColor=#f8cecc;strokeColor=#B85450;exitX=0.625;exitY=0.2;exitDx=0;exitDy=0;entryX=0.5;entryY=1;entryDx=0;entryDy=0;exitPerimeter=0;" parent="1" source="76j5sk3wCB9ZU_lOgHT8-69" target="M235wbPJO0eQFkBtWyqc-42" edge="1">
          <mxGeometry width="50" height="50" relative="1" as="geometry">
            <mxPoint x="547" y="555" as="sourcePoint" />
            <mxPoint x="547" y="480" as="targetPoint" />
          </mxGeometry>
        </mxCell>
        <mxCell id="M235wbPJO0eQFkBtWyqc-45" value="" style="rhombus;whiteSpace=wrap;html=1;rotation=-180;" parent="1" vertex="1">
          <mxGeometry x="567" y="457.5" width="20" height="17.5" as="geometry" />
        </mxCell>
        <mxCell id="M235wbPJO0eQFkBtWyqc-46" value="" style="rhombus;whiteSpace=wrap;html=1;rotation=-180;" parent="1" vertex="1">
          <mxGeometry x="567" y="397.5" width="20" height="17.5" as="geometry" />
        </mxCell>
        <mxCell id="M235wbPJO0eQFkBtWyqc-47" value="" style="endArrow=none;html=1;fillColor=#f8cecc;entryX=0.5;entryY=0;entryDx=0;entryDy=0;strokeColor=#FFD966;strokeWidth=3;" parent="1" target="M235wbPJO0eQFkBtWyqc-46" edge="1">
          <mxGeometry width="50" height="50" relative="1" as="geometry">
            <mxPoint x="577" y="460" as="sourcePoint" />
            <mxPoint x="619.5" y="422.5" as="targetPoint" />
          </mxGeometry>
        </mxCell>
        <mxCell id="M235wbPJO0eQFkBtWyqc-48" value="OPT" style="text;html=1;strokeColor=none;fillColor=none;align=center;verticalAlign=middle;whiteSpace=wrap;rounded=0;rotation=0;" parent="1" vertex="1">
          <mxGeometry x="532" y="440" width="50" height="30" as="geometry" />
        </mxCell>
        <mxCell id="M235wbPJO0eQFkBtWyqc-49" value="OPT" style="text;html=1;strokeColor=none;fillColor=none;align=center;verticalAlign=middle;whiteSpace=wrap;rounded=0;" parent="1" vertex="1">
          <mxGeometry x="567" y="375" width="50" height="30" as="geometry" />
        </mxCell>
        <mxCell id="M235wbPJO0eQFkBtWyqc-51" value="" style="rounded=1;whiteSpace=wrap;html=1;" parent="1" vertex="1">
          <mxGeometry x="542" y="280" width="135" height="60" as="geometry" />
        </mxCell>
        <mxCell id="M235wbPJO0eQFkBtWyqc-52" value="RPI" style="text;html=1;strokeColor=none;fillColor=none;align=center;verticalAlign=middle;whiteSpace=wrap;rounded=0;" parent="1" vertex="1">
          <mxGeometry x="592" y="285" width="40" height="20" as="geometry" />
        </mxCell>
        <mxCell id="M235wbPJO0eQFkBtWyqc-53" value="" style="ellipse;whiteSpace=wrap;html=1;aspect=fixed;" parent="1" vertex="1">
          <mxGeometry x="662" y="320" width="10" height="10" as="geometry" />
        </mxCell>
        <mxCell id="M235wbPJO0eQFkBtWyqc-54" value="" style="endArrow=none;html=1;fillColor=#f8cecc;strokeColor=#B85450;entryX=0.5;entryY=1;entryDx=0;entryDy=0;exitX=0.5;exitY=0;exitDx=0;exitDy=0;strokeWidth=2;" parent="1" source="76j5sk3wCB9ZU_lOgHT8-66" target="M235wbPJO0eQFkBtWyqc-53" edge="1">
          <mxGeometry width="50" height="50" relative="1" as="geometry">
            <mxPoint x="707" y="470" as="sourcePoint" />
            <mxPoint x="662" y="160" as="targetPoint" />
          </mxGeometry>
        </mxCell>
        <mxCell id="M235wbPJO0eQFkBtWyqc-55" value="" style="rounded=0;whiteSpace=wrap;html=1;" parent="1" vertex="1">
          <mxGeometry x="552" y="320" width="10" height="10" as="geometry" />
        </mxCell>
        <mxCell id="M235wbPJO0eQFkBtWyqc-56" value="" style="rounded=0;whiteSpace=wrap;html=1;" parent="1" vertex="1">
          <mxGeometry x="547" y="397.5" width="10" height="10" as="geometry" />
        </mxCell>
        <mxCell id="M235wbPJO0eQFkBtWyqc-57" value="" style="endArrow=none;html=1;fillColor=#dae8fc;exitX=0.5;exitY=0;exitDx=0;exitDy=0;entryX=0.25;entryY=1;entryDx=0;entryDy=0;strokeWidth=3;strokeColor=#7EA6E0;" parent="1" source="M235wbPJO0eQFkBtWyqc-56" target="M235wbPJO0eQFkBtWyqc-55" edge="1">
          <mxGeometry width="50" height="50" relative="1" as="geometry">
            <mxPoint x="477" y="450" as="sourcePoint" />
            <mxPoint x="507" y="250" as="targetPoint" />
          </mxGeometry>
        </mxCell>
        <mxCell id="M235wbPJO0eQFkBtWyqc-60" value="" style="rounded=0;whiteSpace=wrap;html=1;" parent="1" vertex="1">
          <mxGeometry x="507" y="457.5" width="10" height="12.5" as="geometry" />
        </mxCell>
        <mxCell id="M235wbPJO0eQFkBtWyqc-64" value="" style="endArrow=none;html=1;strokeColor=#7EA6E0;entryX=0;entryY=0.75;entryDx=0;entryDy=0;exitX=1;exitY=0.5;exitDx=0;exitDy=0;strokeWidth=3;" parent="1" source="M235wbPJO0eQFkBtWyqc-1" target="M235wbPJO0eQFkBtWyqc-60" edge="1">
          <mxGeometry width="50" height="50" relative="1" as="geometry">
            <mxPoint x="477" y="450" as="sourcePoint" />
            <mxPoint x="527" y="400" as="targetPoint" />
          </mxGeometry>
        </mxCell>
        <mxCell id="M235wbPJO0eQFkBtWyqc-67" value="" style="rounded=0;whiteSpace=wrap;html=1;" parent="1" vertex="1">
          <mxGeometry x="863.25" y="300" width="10" height="10" as="geometry" />
        </mxCell>
        <mxCell id="M235wbPJO0eQFkBtWyqc-68" value="" style="rounded=0;whiteSpace=wrap;html=1;" parent="1" vertex="1">
          <mxGeometry x="652" y="295" width="10" height="10" as="geometry" />
        </mxCell>
        <mxCell id="M235wbPJO0eQFkBtWyqc-69" value="" style="endArrow=none;html=1;entryX=0;entryY=0.5;entryDx=0;entryDy=0;fillColor=#e1d5e7;exitX=0;exitY=0.75;exitDx=0;exitDy=0;strokeWidth=4;" parent="1" source="76j5sk3wCB9ZU_lOgHT8-82" target="M235wbPJO0eQFkBtWyqc-67" edge="1">
          <mxGeometry width="50" height="50" relative="1" as="geometry">
            <mxPoint x="682" y="305" as="sourcePoint" />
            <mxPoint x="597" y="370" as="targetPoint" />
          </mxGeometry>
        </mxCell>
        <mxCell id="jf7ATLeE-LSNP4t4z8-3-12" value="&lt;font color=&quot;#000000&quot; style=&quot;font-size: 8px;&quot;&gt;Data only&lt;/font&gt;" style="edgeLabel;html=1;align=center;verticalAlign=middle;resizable=0;points=[];fontColor=#A8A8A8;fontSize=8;" parent="M235wbPJO0eQFkBtWyqc-69" vertex="1" connectable="0">
          <mxGeometry x="0.4016" y="-3" relative="1" as="geometry">
            <mxPoint x="-6.83" y="-13.24" as="offset" />
          </mxGeometry>
        </mxCell>
        <mxCell id="M235wbPJO0eQFkBtWyqc-74" value="Supra" style="text;html=1;strokeColor=none;fillColor=none;align=center;verticalAlign=middle;whiteSpace=wrap;rounded=0;" parent="1" vertex="1">
          <mxGeometry x="927" y="720" width="40" height="10" as="geometry" />
        </mxCell>
        <mxCell id="M235wbPJO0eQFkBtWyqc-80" value="12V" style="ellipse;whiteSpace=wrap;html=1;aspect=fixed;fillColor=none;fillOpacity=50;strokeColor=#A8A8A8;fontColor=#A8A8A8;" parent="1" vertex="1">
          <mxGeometry x="943" y="531" width="30" height="30" as="geometry" />
        </mxCell>
        <mxCell id="M235wbPJO0eQFkBtWyqc-83" value="" style="rounded=1;whiteSpace=wrap;html=1;arcSize=50;opacity=50;fillColor=none;" parent="1" vertex="1">
          <mxGeometry x="847" y="401" width="127.5" height="50" as="geometry" />
        </mxCell>
        <mxCell id="M235wbPJO0eQFkBtWyqc-84" value="UpTone LPS1.2" style="text;html=1;strokeColor=none;fillColor=none;align=center;verticalAlign=middle;whiteSpace=wrap;rounded=0;rotation=0;" parent="1" vertex="1">
          <mxGeometry x="884.5" y="407" width="40" height="25" as="geometry" />
        </mxCell>
        <mxCell id="M235wbPJO0eQFkBtWyqc-88" value="" style="endArrow=none;html=1;fillColor=#f8cecc;strokeColor=#B85450;exitX=0.625;exitY=0.2;exitDx=0;exitDy=0;entryX=0.5;entryY=1;entryDx=0;entryDy=0;strokeWidth=4;exitPerimeter=0;" parent="1" source="76j5sk3wCB9ZU_lOgHT8-117" target="M235wbPJO0eQFkBtWyqc-83" edge="1">
          <mxGeometry width="50" height="50" relative="1" as="geometry">
            <mxPoint x="802" y="555" as="sourcePoint" />
            <mxPoint x="837" y="500" as="targetPoint" />
          </mxGeometry>
        </mxCell>
        <mxCell id="M235wbPJO0eQFkBtWyqc-92" value="7V" style="ellipse;whiteSpace=wrap;html=1;aspect=fixed;" parent="1" vertex="1">
          <mxGeometry x="849.5" y="409.5" width="30" height="30" as="geometry" />
        </mxCell>
        <mxCell id="M235wbPJO0eQFkBtWyqc-95" value="LPS&lt;br&gt;&lt;span style=&quot;font-family: helvetica, arial, sans-serif; font-size: 13px; text-align: left; background-color: rgb(255, 255, 255);&quot;&gt;7.5V/4.8A, 9V/4A, 12V/3A, &lt;b&gt;18V/2A, 24V/1.5A&lt;/b&gt;&lt;/span&gt;" style="text;html=1;fillColor=none;align=center;verticalAlign=middle;whiteSpace=wrap;rounded=0;fillOpacity=50;strokeColor=#A8A8A8;fontColor=#A8A8A8;" parent="1" vertex="1">
          <mxGeometry x="892" y="535" width="40" height="15" as="geometry" />
        </mxCell>
        <mxCell id="M235wbPJO0eQFkBtWyqc-97" value="16V" style="ellipse;whiteSpace=wrap;html=1;aspect=fixed;fillColor=none;fillOpacity=50;strokeColor=#A8A8A8;fontColor=#A8A8A8;" parent="1" vertex="1">
          <mxGeometry x="943" y="586" width="25" height="25" as="geometry" />
        </mxCell>
        <mxCell id="M235wbPJO0eQFkBtWyqc-94" value="5V" style="ellipse;whiteSpace=wrap;html=1;aspect=fixed;fillColor=none;fillOpacity=50;strokeColor=#A8A8A8;fontColor=#A8A8A8;" parent="1" vertex="1">
          <mxGeometry x="849" y="530.5" width="29.5" height="29.5" as="geometry" />
        </mxCell>
        <mxCell id="M235wbPJO0eQFkBtWyqc-99" value="9V" style="ellipse;whiteSpace=wrap;html=1;aspect=fixed;fillColor=none;fillOpacity=50;strokeColor=#A8A8A8;fontColor=#A8A8A8;" parent="1" vertex="1">
          <mxGeometry x="849" y="588" width="25" height="25" as="geometry" />
        </mxCell>
        <mxCell id="M235wbPJO0eQFkBtWyqc-100" value="" style="shape=parallelogram;perimeter=parallelogramPerimeter;whiteSpace=wrap;html=1;" parent="1" vertex="1">
          <mxGeometry x="892" y="295" width="50" height="20" as="geometry" />
        </mxCell>
        <mxCell id="M235wbPJO0eQFkBtWyqc-101" value="I2S" style="text;html=1;strokeColor=none;fillColor=none;align=center;verticalAlign=middle;whiteSpace=wrap;rounded=0;" parent="1" vertex="1">
          <mxGeometry x="892" y="290" width="50" height="30" as="geometry" />
        </mxCell>
        <mxCell id="M235wbPJO0eQFkBtWyqc-66" value="Matrix" style="text;html=1;strokeColor=none;fillColor=none;align=center;verticalAlign=middle;whiteSpace=wrap;rounded=0;" parent="1" vertex="1">
          <mxGeometry x="882" y="315" width="40" height="30" as="geometry" />
        </mxCell>
        <mxCell id="M235wbPJO0eQFkBtWyqc-78" value="" style="ellipse;whiteSpace=wrap;html=1;aspect=fixed;" parent="1" vertex="1">
          <mxGeometry x="869.5" y="325" width="10" height="10" as="geometry" />
        </mxCell>
        <mxCell id="M235wbPJO0eQFkBtWyqc-105" value="" style="endArrow=none;html=1;fillColor=#f8cecc;strokeColor=#B85450;exitX=0.5;exitY=0;exitDx=0;exitDy=0;strokeWidth=2;" parent="1" source="M235wbPJO0eQFkBtWyqc-92" target="M235wbPJO0eQFkBtWyqc-78" edge="1">
          <mxGeometry width="50" height="50" relative="1" as="geometry">
            <mxPoint x="832" y="375" as="sourcePoint" />
            <mxPoint x="832" y="300" as="targetPoint" />
          </mxGeometry>
        </mxCell>
        <mxCell id="M235wbPJO0eQFkBtWyqc-113" value="DirectStream DAC" style="text;html=1;strokeColor=none;fillColor=none;align=center;verticalAlign=middle;whiteSpace=wrap;rounded=0;" parent="1" vertex="1">
          <mxGeometry x="597" y="180" width="100" height="20" as="geometry" />
        </mxCell>
        <mxCell id="M235wbPJO0eQFkBtWyqc-114" value="" style="endArrow=none;html=1;entryX=1;entryY=0.75;entryDx=0;entryDy=0;strokeColor=#FF33FF;strokeWidth=5;exitX=0;exitY=0.25;exitDx=0;exitDy=0;" parent="1" source="M235wbPJO0eQFkBtWyqc-100" target="76j5sk3wCB9ZU_lOgHT8-92" edge="1">
          <mxGeometry width="50" height="50" relative="1" as="geometry">
            <mxPoint x="657" y="430" as="sourcePoint" />
            <mxPoint x="707" y="380" as="targetPoint" />
          </mxGeometry>
        </mxCell>
        <mxCell id="76j5sk3wCB9ZU_lOgHT8-1" value="&lt;font color=&quot;#ff0000&quot;&gt;7 - 24V&lt;br&gt;35W&lt;/font&gt;" style="text;html=1;strokeColor=none;fillColor=none;align=center;verticalAlign=middle;whiteSpace=wrap;rounded=0;fontStyle=1" parent="1" vertex="1">
          <mxGeometry x="924.5" y="417" width="50" height="30" as="geometry" />
        </mxCell>
        <mxCell id="76j5sk3wCB9ZU_lOgHT8-4" value="0,45A?" style="text;html=1;strokeColor=none;fillColor=none;align=center;verticalAlign=middle;whiteSpace=wrap;rounded=0;" parent="1" vertex="1">
          <mxGeometry x="279" y="456" width="40" height="20" as="geometry" />
        </mxCell>
        <mxCell id="76j5sk3wCB9ZU_lOgHT8-5" value="" style="endArrow=none;html=1;fillColor=#f8cecc;strokeColor=#B85450;exitX=0.5;exitY=1;exitDx=0;exitDy=0;entryX=0.625;entryY=0.2;entryDx=0;entryDy=0;entryPerimeter=0;" parent="1" source="M235wbPJO0eQFkBtWyqc-79" target="76j5sk3wCB9ZU_lOgHT8-117" edge="1">
          <mxGeometry width="50" height="50" relative="1" as="geometry">
            <mxPoint x="823" y="658" as="sourcePoint" />
            <mxPoint x="877" y="660" as="targetPoint" />
          </mxGeometry>
        </mxCell>
        <mxCell id="76j5sk3wCB9ZU_lOgHT8-6" value="" style="rounded=1;whiteSpace=wrap;html=1;" parent="1" vertex="1">
          <mxGeometry x="77" y="10" width="300" height="180" as="geometry" />
        </mxCell>
        <mxCell id="76j5sk3wCB9ZU_lOgHT8-7" value="P10" style="text;html=1;strokeColor=none;fillColor=none;align=center;verticalAlign=middle;whiteSpace=wrap;rounded=0;" parent="1" vertex="1">
          <mxGeometry x="187" width="40" height="60" as="geometry" />
        </mxCell>
        <mxCell id="76j5sk3wCB9ZU_lOgHT8-10" value="" style="ellipse;whiteSpace=wrap;html=1;aspect=fixed;" parent="1" vertex="1">
          <mxGeometry x="87" y="70" width="40" height="40" as="geometry" />
        </mxCell>
        <mxCell id="76j5sk3wCB9ZU_lOgHT8-11" value="" style="ellipse;whiteSpace=wrap;html=1;aspect=fixed;" parent="1" vertex="1">
          <mxGeometry x="147" y="70" width="40" height="40" as="geometry" />
        </mxCell>
        <mxCell id="76j5sk3wCB9ZU_lOgHT8-12" value="" style="ellipse;whiteSpace=wrap;html=1;aspect=fixed;" parent="1" vertex="1">
          <mxGeometry x="207" y="70" width="40" height="40" as="geometry" />
        </mxCell>
        <mxCell id="76j5sk3wCB9ZU_lOgHT8-13" value="" style="ellipse;whiteSpace=wrap;html=1;aspect=fixed;" parent="1" vertex="1">
          <mxGeometry x="257" y="70" width="40" height="40" as="geometry" />
        </mxCell>
        <mxCell id="76j5sk3wCB9ZU_lOgHT8-14" value="" style="ellipse;whiteSpace=wrap;html=1;aspect=fixed;" parent="1" vertex="1">
          <mxGeometry x="317" y="70" width="40" height="40" as="geometry" />
        </mxCell>
        <mxCell id="76j5sk3wCB9ZU_lOgHT8-15" value="" style="ellipse;whiteSpace=wrap;html=1;aspect=fixed;" parent="1" vertex="1">
          <mxGeometry x="107" y="130" width="40" height="40" as="geometry" />
        </mxCell>
        <mxCell id="76j5sk3wCB9ZU_lOgHT8-16" value="" style="ellipse;whiteSpace=wrap;html=1;aspect=fixed;" parent="1" vertex="1">
          <mxGeometry x="167" y="130" width="40" height="40" as="geometry" />
        </mxCell>
        <mxCell id="76j5sk3wCB9ZU_lOgHT8-17" value="" style="ellipse;whiteSpace=wrap;html=1;aspect=fixed;" parent="1" vertex="1">
          <mxGeometry x="227" y="130" width="40" height="40" as="geometry" />
        </mxCell>
        <mxCell id="76j5sk3wCB9ZU_lOgHT8-18" value="" style="ellipse;whiteSpace=wrap;html=1;aspect=fixed;" parent="1" vertex="1">
          <mxGeometry x="277" y="130" width="40" height="40" as="geometry" />
        </mxCell>
        <mxCell id="76j5sk3wCB9ZU_lOgHT8-19" value="" style="ellipse;whiteSpace=wrap;html=1;aspect=fixed;" parent="1" vertex="1">
          <mxGeometry x="327" y="130" width="40" height="40" as="geometry" />
        </mxCell>
        <mxCell id="76j5sk3wCB9ZU_lOgHT8-20" value="" style="endArrow=none;html=1;strokeWidth=2;entryX=1;entryY=1;entryDx=0;entryDy=0;strokeColor=#FF3333;" parent="1" target="76j5sk3wCB9ZU_lOgHT8-19" edge="1">
          <mxGeometry width="50" height="50" relative="1" as="geometry">
            <mxPoint x="462" y="200" as="sourcePoint" />
            <mxPoint x="447" y="390" as="targetPoint" />
          </mxGeometry>
        </mxCell>
        <mxCell id="76j5sk3wCB9ZU_lOgHT8-21" value="AW400" style="rounded=1;whiteSpace=wrap;html=1;fillColor=#e1d5e7;strokeColor=#9673a6;" parent="1" vertex="1">
          <mxGeometry x="497" width="120" height="60" as="geometry" />
        </mxCell>
        <mxCell id="76j5sk3wCB9ZU_lOgHT8-22" value="AW400" style="rounded=1;whiteSpace=wrap;html=1;fillColor=#e1d5e7;strokeColor=#9673a6;" parent="1" vertex="1">
          <mxGeometry x="682" width="120" height="60" as="geometry" />
        </mxCell>
        <mxCell id="76j5sk3wCB9ZU_lOgHT8-23" value="Ref5SE" style="rounded=1;whiteSpace=wrap;html=1;arcSize=50;fillColor=#e1d5e7;strokeColor=#9673a6;" parent="1" vertex="1">
          <mxGeometry x="457" y="80" width="400" height="60" as="geometry" />
        </mxCell>
        <mxCell id="76j5sk3wCB9ZU_lOgHT8-24" value="" style="endArrow=none;html=1;strokeColor=#FF3333;strokeWidth=2;entryX=0;entryY=0.75;entryDx=0;entryDy=0;exitX=0.5;exitY=0;exitDx=0;exitDy=0;" parent="1" source="76j5sk3wCB9ZU_lOgHT8-13" target="76j5sk3wCB9ZU_lOgHT8-21" edge="1">
          <mxGeometry width="50" height="50" relative="1" as="geometry">
            <mxPoint x="517" y="400" as="sourcePoint" />
            <mxPoint x="567" y="350" as="targetPoint" />
          </mxGeometry>
        </mxCell>
        <mxCell id="76j5sk3wCB9ZU_lOgHT8-25" value="" style="endArrow=none;html=1;strokeColor=#FF3333;strokeWidth=2;entryX=0.5;entryY=1;entryDx=0;entryDy=0;exitX=0.75;exitY=0.25;exitDx=0;exitDy=0;exitPerimeter=0;" parent="1" source="76j5sk3wCB9ZU_lOgHT8-14" target="76j5sk3wCB9ZU_lOgHT8-22" edge="1">
          <mxGeometry width="50" height="50" relative="1" as="geometry">
            <mxPoint x="347" y="100" as="sourcePoint" />
            <mxPoint x="507" y="55" as="targetPoint" />
          </mxGeometry>
        </mxCell>
        <mxCell id="76j5sk3wCB9ZU_lOgHT8-26" value="" style="endArrow=none;html=1;strokeColor=#FF3333;strokeWidth=2;entryX=0;entryY=0.5;entryDx=0;entryDy=0;exitX=0.5;exitY=0;exitDx=0;exitDy=0;" parent="1" source="76j5sk3wCB9ZU_lOgHT8-18" target="76j5sk3wCB9ZU_lOgHT8-23" edge="1">
          <mxGeometry width="50" height="50" relative="1" as="geometry">
            <mxPoint x="357" y="90" as="sourcePoint" />
            <mxPoint x="752" y="70" as="targetPoint" />
          </mxGeometry>
        </mxCell>
        <mxCell id="76j5sk3wCB9ZU_lOgHT8-30" value="" style="endArrow=none;html=1;strokeWidth=2;entryX=0.5;entryY=1;entryDx=0;entryDy=0;exitX=0.5;exitY=0;exitDx=0;exitDy=0;fillColor=#b0e3e6;strokeColor=#97D077;" parent="1" source="76j5sk3wCB9ZU_lOgHT8-32" target="76j5sk3wCB9ZU_lOgHT8-31" edge="1">
          <mxGeometry width="50" height="50" relative="1" as="geometry">
            <mxPoint x="527" y="180" as="sourcePoint" />
            <mxPoint x="527" y="150" as="targetPoint" />
          </mxGeometry>
        </mxCell>
        <mxCell id="76j5sk3wCB9ZU_lOgHT8-31" value="" style="ellipse;whiteSpace=wrap;html=1;aspect=fixed;" parent="1" vertex="1">
          <mxGeometry x="517" y="100" width="20" height="20" as="geometry" />
        </mxCell>
        <mxCell id="76j5sk3wCB9ZU_lOgHT8-32" value="" style="ellipse;whiteSpace=wrap;html=1;aspect=fixed;" parent="1" vertex="1">
          <mxGeometry x="517" y="190" width="20" height="20" as="geometry" />
        </mxCell>
        <mxCell id="76j5sk3wCB9ZU_lOgHT8-33" value="" style="ellipse;whiteSpace=wrap;html=1;aspect=fixed;" parent="1" vertex="1">
          <mxGeometry x="782" y="190" width="20" height="20" as="geometry" />
        </mxCell>
        <mxCell id="76j5sk3wCB9ZU_lOgHT8-34" value="" style="ellipse;whiteSpace=wrap;html=1;aspect=fixed;" parent="1" vertex="1">
          <mxGeometry x="782" y="100" width="20" height="20" as="geometry" />
        </mxCell>
        <mxCell id="76j5sk3wCB9ZU_lOgHT8-35" value="" style="endArrow=none;html=1;strokeWidth=2;entryX=0.5;entryY=1;entryDx=0;entryDy=0;exitX=0.5;exitY=0;exitDx=0;exitDy=0;strokeColor=#97D077;" parent="1" source="76j5sk3wCB9ZU_lOgHT8-33" target="76j5sk3wCB9ZU_lOgHT8-34" edge="1">
          <mxGeometry width="50" height="50" relative="1" as="geometry">
            <mxPoint x="537" y="200" as="sourcePoint" />
            <mxPoint x="537" y="130" as="targetPoint" />
          </mxGeometry>
        </mxCell>
        <mxCell id="76j5sk3wCB9ZU_lOgHT8-36" value="" style="endArrow=none;html=1;strokeWidth=2;entryX=0.5;entryY=1;entryDx=0;entryDy=0;fillColor=#b0e3e6;strokeColor=#97D077;exitX=0.5;exitY=0;exitDx=0;exitDy=0;entryPerimeter=0;" parent="1" source="76j5sk3wCB9ZU_lOgHT8-39" target="76j5sk3wCB9ZU_lOgHT8-37" edge="1">
          <mxGeometry width="50" height="50" relative="1" as="geometry">
            <mxPoint x="527" y="100" as="sourcePoint" />
            <mxPoint x="537" y="130" as="targetPoint" />
          </mxGeometry>
        </mxCell>
        <mxCell id="76j5sk3wCB9ZU_lOgHT8-37" value="" style="ellipse;whiteSpace=wrap;html=1;aspect=fixed;" parent="1" vertex="1">
          <mxGeometry x="512" y="30" width="20" height="20" as="geometry" />
        </mxCell>
        <mxCell id="76j5sk3wCB9ZU_lOgHT8-38" value="" style="ellipse;whiteSpace=wrap;html=1;aspect=fixed;" parent="1" vertex="1">
          <mxGeometry x="762" y="30" width="20" height="20" as="geometry" />
        </mxCell>
        <mxCell id="76j5sk3wCB9ZU_lOgHT8-39" value="" style="ellipse;whiteSpace=wrap;html=1;aspect=fixed;" parent="1" vertex="1">
          <mxGeometry x="547" y="100" width="20" height="20" as="geometry" />
        </mxCell>
        <mxCell id="76j5sk3wCB9ZU_lOgHT8-40" value="" style="ellipse;whiteSpace=wrap;html=1;aspect=fixed;" parent="1" vertex="1">
          <mxGeometry x="747" y="100" width="20" height="20" as="geometry" />
        </mxCell>
        <mxCell id="76j5sk3wCB9ZU_lOgHT8-41" value="" style="endArrow=none;html=1;strokeWidth=2;fillColor=#b0e3e6;strokeColor=#97D077;exitX=0;exitY=0;exitDx=0;exitDy=0;" parent="1" source="76j5sk3wCB9ZU_lOgHT8-40" edge="1">
          <mxGeometry width="50" height="50" relative="1" as="geometry">
            <mxPoint x="567" y="110" as="sourcePoint" />
            <mxPoint x="767" y="50" as="targetPoint" />
          </mxGeometry>
        </mxCell>
        <mxCell id="76j5sk3wCB9ZU_lOgHT8-51" value="" style="endArrow=none;html=1;fillColor=#f8cecc;strokeColor=#B85450;exitX=0.5;exitY=1;exitDx=0;exitDy=0;entryX=0.5;entryY=0;entryDx=0;entryDy=0;" parent="1" source="M235wbPJO0eQFkBtWyqc-37" target="M235wbPJO0eQFkBtWyqc-7" edge="1">
          <mxGeometry width="50" height="50" relative="1" as="geometry">
            <mxPoint x="342" y="545" as="sourcePoint" />
            <mxPoint x="337" y="400" as="targetPoint" />
          </mxGeometry>
        </mxCell>
        <mxCell id="M235wbPJO0eQFkBtWyqc-37" value="Vero4k" style="text;html=1;strokeColor=none;fillColor=none;align=center;verticalAlign=middle;whiteSpace=wrap;rounded=0;" parent="1" vertex="1">
          <mxGeometry x="322" y="365" width="40" height="20" as="geometry" />
        </mxCell>
        <mxCell id="76j5sk3wCB9ZU_lOgHT8-58" value="HDMI SWITCH" style="rounded=1;whiteSpace=wrap;html=1;arcSize=50;" parent="1" vertex="1">
          <mxGeometry x="137" y="270" width="120" height="60" as="geometry" />
        </mxCell>
        <mxCell id="76j5sk3wCB9ZU_lOgHT8-59" value="" style="endArrow=none;html=1;strokeWidth=1;exitX=1;exitY=0.75;exitDx=0;exitDy=0;entryX=0;entryY=0;entryDx=0;entryDy=0;" parent="1" source="76j5sk3wCB9ZU_lOgHT8-58" target="M235wbPJO0eQFkBtWyqc-37" edge="1">
          <mxGeometry width="50" height="50" relative="1" as="geometry">
            <mxPoint x="527" y="460" as="sourcePoint" />
            <mxPoint x="322" y="370" as="targetPoint" />
          </mxGeometry>
        </mxCell>
        <mxCell id="76j5sk3wCB9ZU_lOgHT8-60" value="PJ" style="rounded=1;whiteSpace=wrap;html=1;fillColor=#b1ddf0;arcSize=50;strokeColor=#10739e;" parent="1" vertex="1">
          <mxGeometry x="137" y="345" width="120" height="60" as="geometry" />
        </mxCell>
        <mxCell id="76j5sk3wCB9ZU_lOgHT8-61" value="" style="endArrow=none;html=1;strokeWidth=2;strokeColor=#FF3333;exitX=0;exitY=0.5;exitDx=0;exitDy=0;" parent="1" source="76j5sk3wCB9ZU_lOgHT8-60" edge="1">
          <mxGeometry width="50" height="50" relative="1" as="geometry">
            <mxPoint x="472" y="210" as="sourcePoint" />
            <mxPoint x="57" y="375" as="targetPoint" />
          </mxGeometry>
        </mxCell>
        <mxCell id="76j5sk3wCB9ZU_lOgHT8-66" value="SuperCap?" style="ellipse;shape=cloud;whiteSpace=wrap;html=1;fillColor=#FFFF66;dashed=1;opacity=25;textOpacity=25;" parent="1" vertex="1">
          <mxGeometry x="622" y="422.5" width="90" height="50" as="geometry" />
        </mxCell>
        <mxCell id="76j5sk3wCB9ZU_lOgHT8-67" value="" style="endArrow=none;html=1;fillColor=#f8cecc;strokeColor=#B85450;entryX=0.5;entryY=1;entryDx=0;entryDy=0;exitX=0.5;exitY=0;exitDx=0;exitDy=0;strokeWidth=2;" parent="1" source="M235wbPJO0eQFkBtWyqc-23" target="76j5sk3wCB9ZU_lOgHT8-66" edge="1">
          <mxGeometry width="50" height="50" relative="1" as="geometry">
            <mxPoint x="667" y="545" as="sourcePoint" />
            <mxPoint x="667" y="330" as="targetPoint" />
          </mxGeometry>
        </mxCell>
        <mxCell id="76j5sk3wCB9ZU_lOgHT8-69" value="SuperCap?" style="ellipse;shape=cloud;whiteSpace=wrap;html=1;fillColor=#FFFF66;dashed=1;opacity=25;textOpacity=25;" parent="1" vertex="1">
          <mxGeometry x="564.5" y="472.5" width="90" height="50" as="geometry" />
        </mxCell>
        <mxCell id="76j5sk3wCB9ZU_lOgHT8-70" value="" style="endArrow=none;html=1;fillColor=#f8cecc;strokeColor=#B85450;exitX=0.75;exitY=0;exitDx=0;exitDy=0;entryX=0.5;entryY=1;entryDx=0;entryDy=0;" parent="1" source="M235wbPJO0eQFkBtWyqc-16" target="76j5sk3wCB9ZU_lOgHT8-69" edge="1">
          <mxGeometry width="50" height="50" relative="1" as="geometry">
            <mxPoint x="607" y="530" as="sourcePoint" />
            <mxPoint x="609.5" y="412.5" as="targetPoint" />
          </mxGeometry>
        </mxCell>
        <mxCell id="76j5sk3wCB9ZU_lOgHT8-77" value="" style="endArrow=none;html=1;strokeColor=#9673a6;fillColor=#e1d5e7;exitX=0;exitY=0.5;exitDx=0;exitDy=0;strokeWidth=4;entryX=1;entryY=0.5;entryDx=0;entryDy=0;" parent="1" source="jf7ATLeE-LSNP4t4z8-3-1" target="M235wbPJO0eQFkBtWyqc-68" edge="1">
          <mxGeometry width="50" height="50" relative="1" as="geometry">
            <mxPoint x="797" y="342.5" as="sourcePoint" />
            <mxPoint x="697" y="270" as="targetPoint" />
          </mxGeometry>
        </mxCell>
        <mxCell id="76j5sk3wCB9ZU_lOgHT8-80" value="" style="ellipse;whiteSpace=wrap;html=1;aspect=fixed;" parent="1" vertex="1">
          <mxGeometry x="786" y="325" width="10" height="10" as="geometry" />
        </mxCell>
        <mxCell id="76j5sk3wCB9ZU_lOgHT8-81" value="" style="endArrow=none;html=1;fillColor=#f8cecc;strokeColor=#B85450;exitX=0;exitY=0;exitDx=0;exitDy=0;curved=1;entryX=1;entryY=1;entryDx=0;entryDy=0;strokeWidth=2;" parent="1" source="M235wbPJO0eQFkBtWyqc-92" target="76j5sk3wCB9ZU_lOgHT8-80" edge="1">
          <mxGeometry width="50" height="50" relative="1" as="geometry">
            <mxPoint x="792" y="750" as="sourcePoint" />
            <mxPoint x="792" y="350" as="targetPoint" />
            <Array as="points">
              <mxPoint x="810" y="400" />
            </Array>
          </mxGeometry>
        </mxCell>
        <mxCell id="76j5sk3wCB9ZU_lOgHT8-82" value="" style="rounded=0;whiteSpace=wrap;html=1;" parent="1" vertex="1">
          <mxGeometry x="806" y="295" width="10" height="10" as="geometry" />
        </mxCell>
        <mxCell id="76j5sk3wCB9ZU_lOgHT8-83" value="" style="rounded=0;whiteSpace=wrap;html=1;" parent="1" vertex="1">
          <mxGeometry x="766" y="295" width="10" height="10" as="geometry" />
        </mxCell>
        <mxCell id="76j5sk3wCB9ZU_lOgHT8-89" value="" style="rounded=0;whiteSpace=wrap;html=1;" parent="1" vertex="1">
          <mxGeometry x="562" y="195" width="10" height="10" as="geometry" />
        </mxCell>
        <mxCell id="76j5sk3wCB9ZU_lOgHT8-90" value="I2S" style="text;html=1;strokeColor=none;fillColor=none;align=center;verticalAlign=middle;whiteSpace=wrap;rounded=0;" parent="1" vertex="1">
          <mxGeometry x="707" y="180" width="50" height="35" as="geometry" />
        </mxCell>
        <mxCell id="76j5sk3wCB9ZU_lOgHT8-93" value="Toslink" style="text;html=1;strokeColor=none;fillColor=none;align=center;verticalAlign=middle;whiteSpace=wrap;rounded=0;" parent="1" vertex="1">
          <mxGeometry x="542" y="170" width="50" height="35" as="geometry" />
        </mxCell>
        <mxCell id="76j5sk3wCB9ZU_lOgHT8-94" value="" style="endArrow=classic;html=1;entryX=1;entryY=0.5;entryDx=0;entryDy=0;fillColor=#fad7ac;strokeColor=#FFD966;rounded=1;strokeWidth=3;exitX=0.75;exitY=0;exitDx=0;exitDy=0;" parent="1" source="M235wbPJO0eQFkBtWyqc-37" target="76j5sk3wCB9ZU_lOgHT8-99" edge="1">
          <mxGeometry width="50" height="50" relative="1" as="geometry">
            <mxPoint x="357" y="318.76" as="sourcePoint" />
            <mxPoint x="572" y="200" as="targetPoint" />
            <Array as="points" />
          </mxGeometry>
        </mxCell>
        <mxCell id="76j5sk3wCB9ZU_lOgHT8-98" value="Optoswitch" style="ellipse;whiteSpace=wrap;html=1;aspect=fixed;opacity=50;" parent="1" vertex="1">
          <mxGeometry x="317" y="240" width="60" height="60" as="geometry" />
        </mxCell>
        <mxCell id="76j5sk3wCB9ZU_lOgHT8-99" value="" style="rounded=0;whiteSpace=wrap;html=1;" parent="1" vertex="1">
          <mxGeometry x="342" y="285" width="10" height="10" as="geometry" />
        </mxCell>
        <mxCell id="76j5sk3wCB9ZU_lOgHT8-100" value="" style="rounded=0;whiteSpace=wrap;html=1;" parent="1" vertex="1">
          <mxGeometry x="342" y="250" width="10" height="10" as="geometry" />
        </mxCell>
        <mxCell id="76j5sk3wCB9ZU_lOgHT8-101" value="" style="endArrow=classic;html=1;entryX=0.5;entryY=1;entryDx=0;entryDy=0;fillColor=#fad7ac;strokeColor=#FFD966;rounded=1;strokeWidth=3;exitX=1;exitY=0.5;exitDx=0;exitDy=0;" parent="1" source="76j5sk3wCB9ZU_lOgHT8-98" target="76j5sk3wCB9ZU_lOgHT8-93" edge="1">
          <mxGeometry width="50" height="50" relative="1" as="geometry">
            <mxPoint x="367" y="328.76" as="sourcePoint" />
            <mxPoint x="362" y="300" as="targetPoint" />
            <Array as="points" />
          </mxGeometry>
        </mxCell>
        <mxCell id="76j5sk3wCB9ZU_lOgHT8-102" value="" style="endArrow=none;html=1;strokeWidth=1;entryX=0.5;entryY=0;entryDx=0;entryDy=0;exitX=0.5;exitY=1;exitDx=0;exitDy=0;" parent="1" source="76j5sk3wCB9ZU_lOgHT8-58" target="76j5sk3wCB9ZU_lOgHT8-60" edge="1">
          <mxGeometry width="50" height="50" relative="1" as="geometry">
            <mxPoint x="267" y="290" as="sourcePoint" />
            <mxPoint x="337" y="330" as="targetPoint" />
          </mxGeometry>
        </mxCell>
        <mxCell id="76j5sk3wCB9ZU_lOgHT8-103" value="TV" style="rounded=1;whiteSpace=wrap;html=1;fillColor=#b1ddf0;arcSize=50;strokeColor=#10739e;" parent="1" vertex="1">
          <mxGeometry x="137" y="200" width="120" height="60" as="geometry" />
        </mxCell>
        <mxCell id="76j5sk3wCB9ZU_lOgHT8-106" value="" style="endArrow=none;html=1;strokeWidth=1;exitX=0.5;exitY=0;exitDx=0;exitDy=0;" parent="1" source="76j5sk3wCB9ZU_lOgHT8-58" edge="1">
          <mxGeometry width="50" height="50" relative="1" as="geometry">
            <mxPoint x="267" y="325" as="sourcePoint" />
            <mxPoint x="197" y="260" as="targetPoint" />
          </mxGeometry>
        </mxCell>
        <mxCell id="76j5sk3wCB9ZU_lOgHT8-107" value="" style="endArrow=none;html=1;strokeWidth=2;strokeColor=#FF3333;exitX=0;exitY=0.5;exitDx=0;exitDy=0;" parent="1" source="76j5sk3wCB9ZU_lOgHT8-103" edge="1">
          <mxGeometry width="50" height="50" relative="1" as="geometry">
            <mxPoint x="147" y="385" as="sourcePoint" />
            <mxPoint x="57" y="230" as="targetPoint" />
          </mxGeometry>
        </mxCell>
        <mxCell id="76j5sk3wCB9ZU_lOgHT8-108" value="" style="endArrow=classic;html=1;entryX=0;entryY=0.75;entryDx=0;entryDy=0;fillColor=#fad7ac;strokeColor=#FFD966;rounded=1;strokeWidth=3;exitX=1;exitY=0.5;exitDx=0;exitDy=0;" parent="1" source="76j5sk3wCB9ZU_lOgHT8-103" target="76j5sk3wCB9ZU_lOgHT8-100" edge="1">
          <mxGeometry width="50" height="50" relative="1" as="geometry">
            <mxPoint x="367" y="328.76" as="sourcePoint" />
            <mxPoint x="362" y="300.0000000000001" as="targetPoint" />
            <Array as="points" />
          </mxGeometry>
        </mxCell>
        <mxCell id="76j5sk3wCB9ZU_lOgHT8-109" value="Retropie" style="text;html=1;strokeColor=none;fillColor=none;align=center;verticalAlign=middle;whiteSpace=wrap;rounded=0;" parent="1" vertex="1">
          <mxGeometry x="77" y="275" width="40" height="45" as="geometry" />
        </mxCell>
        <mxCell id="76j5sk3wCB9ZU_lOgHT8-113" value="" style="endArrow=none;html=1;strokeWidth=1;exitX=1;exitY=0.5;exitDx=0;exitDy=0;" parent="1" source="76j5sk3wCB9ZU_lOgHT8-112" edge="1">
          <mxGeometry width="50" height="50" relative="1" as="geometry">
            <mxPoint x="267" y="325" as="sourcePoint" />
            <mxPoint x="137" y="298" as="targetPoint" />
          </mxGeometry>
        </mxCell>
        <mxCell id="76j5sk3wCB9ZU_lOgHT8-114" value="" style="endArrow=none;html=1;strokeWidth=2;strokeColor=#FF3333;exitX=0;exitY=0.5;exitDx=0;exitDy=0;" parent="1" source="76j5sk3wCB9ZU_lOgHT8-112" edge="1">
          <mxGeometry width="50" height="50" relative="1" as="geometry">
            <mxPoint x="147" y="240" as="sourcePoint" />
            <mxPoint x="57" y="298" as="targetPoint" />
          </mxGeometry>
        </mxCell>
        <mxCell id="76j5sk3wCB9ZU_lOgHT8-115" value="P10?" style="ellipse;shape=cloud;whiteSpace=wrap;html=1;fillColor=#FFFF66;dashed=1;opacity=25;textOpacity=25;" parent="1" vertex="1">
          <mxGeometry x="680" y="640" width="63" height="25" as="geometry" />
        </mxCell>
        <mxCell id="76j5sk3wCB9ZU_lOgHT8-116" value="" style="endArrow=none;html=1;fillColor=#f8cecc;strokeColor=#B85450;entryX=0.5;entryY=1;entryDx=0;entryDy=0;exitX=0;exitY=0.5;exitDx=0;exitDy=0;" parent="1" source="M235wbPJO0eQFkBtWyqc-29" target="76j5sk3wCB9ZU_lOgHT8-115" edge="1">
          <mxGeometry width="50" height="50" relative="1" as="geometry">
            <mxPoint x="712" y="700" as="sourcePoint" />
            <mxPoint x="712" y="590" as="targetPoint" />
          </mxGeometry>
        </mxCell>
        <mxCell id="76j5sk3wCB9ZU_lOgHT8-117" value="P10?" style="ellipse;shape=cloud;whiteSpace=wrap;html=1;fillColor=#FFFF66;dashed=1;opacity=25;textOpacity=25;" parent="1" vertex="1">
          <mxGeometry x="850" y="650" width="46.75" height="30" as="geometry" />
        </mxCell>
        <mxCell id="76j5sk3wCB9ZU_lOgHT8-118" value="" style="endArrow=none;html=1;fillColor=#f8cecc;strokeColor=#B85450;exitX=0;exitY=0.5;exitDx=0;exitDy=0;" parent="1" source="M235wbPJO0eQFkBtWyqc-31" target="76j5sk3wCB9ZU_lOgHT8-117" edge="1">
          <mxGeometry width="50" height="50" relative="1" as="geometry">
            <mxPoint x="877" y="700" as="sourcePoint" />
            <mxPoint x="877" y="660" as="targetPoint" />
          </mxGeometry>
        </mxCell>
        <mxCell id="2hsKf2Tbr2gXSeUBs6Vq-1" value="" style="endArrow=none;html=1;fillColor=#f8cecc;strokeColor=#B85450;exitX=0.5;exitY=0;exitDx=0;exitDy=0;strokeWidth=2;dashed=1;dashPattern=1 1;opacity=25;entryX=0;entryY=0.5;entryDx=0;entryDy=0;jumpSize=6;" parent="1" source="M235wbPJO0eQFkBtWyqc-94" target="76j5sk3wCB9ZU_lOgHT8-80" edge="1">
          <mxGeometry width="50" height="50" relative="1" as="geometry">
            <mxPoint x="834.5" y="419.5" as="sourcePoint" />
            <mxPoint x="843.8720990679194" y="344.96041736343614" as="targetPoint" />
          </mxGeometry>
        </mxCell>
        <mxCell id="2hsKf2Tbr2gXSeUBs6Vq-2" value="" style="endArrow=none;html=1;fillColor=#f8cecc;strokeColor=#B85450;exitX=0.5;exitY=0;exitDx=0;exitDy=0;strokeWidth=2;dashed=1;dashPattern=1 1;opacity=25;entryX=1;entryY=1;entryDx=0;entryDy=0;" parent="1" target="M235wbPJO0eQFkBtWyqc-53" edge="1">
          <mxGeometry width="50" height="50" relative="1" as="geometry">
            <mxPoint x="833.75" y="540.5" as="sourcePoint" />
            <mxPoint x="757" y="340" as="targetPoint" />
          </mxGeometry>
        </mxCell>
        <mxCell id="2hsKf2Tbr2gXSeUBs6Vq-3" value="" style="endArrow=none;html=1;fillColor=#f8cecc;strokeColor=#B85450;exitX=0;exitY=0;exitDx=0;exitDy=0;strokeWidth=2;dashed=1;dashPattern=1 1;opacity=25;entryX=1;entryY=1;entryDx=0;entryDy=0;" parent="1" source="M235wbPJO0eQFkBtWyqc-99" target="M235wbPJO0eQFkBtWyqc-49" edge="1">
          <mxGeometry width="50" height="50" relative="1" as="geometry">
            <mxPoint x="843.75" y="550.5" as="sourcePoint" />
            <mxPoint x="680.5355339059329" y="338.5355339059329" as="targetPoint" />
          </mxGeometry>
        </mxCell>
        <mxCell id="jf7ATLeE-LSNP4t4z8-3-1" value="JTBG" style="rounded=1;whiteSpace=wrap;html=1;" parent="1" vertex="1">
          <mxGeometry x="697" y="292" width="40" height="15" as="geometry" />
        </mxCell>
        <mxCell id="jf7ATLeE-LSNP4t4z8-3-2" value="" style="endArrow=none;html=1;strokeColor=#9673a6;fillColor=#e1d5e7;exitX=0;exitY=0.5;exitDx=0;exitDy=0;strokeWidth=4;entryX=1;entryY=0.5;entryDx=0;entryDy=0;" parent="1" source="76j5sk3wCB9ZU_lOgHT8-83" target="jf7ATLeE-LSNP4t4z8-3-1" edge="1">
          <mxGeometry width="50" height="50" relative="1" as="geometry">
            <mxPoint x="766" y="300" as="sourcePoint" />
            <mxPoint x="662" y="300" as="targetPoint" />
          </mxGeometry>
        </mxCell>
        <mxCell id="jf7ATLeE-LSNP4t4z8-3-5" value="&lt;font color=&quot;#000000&quot;&gt;ECP-1&lt;/font&gt;" style="rounded=1;whiteSpace=wrap;html=1;strokeColor=#A8A8A8;fontColor=#A8A8A8;" parent="1" vertex="1">
          <mxGeometry x="967" y="170" width="60" height="20" as="geometry" />
        </mxCell>
        <mxCell id="jf7ATLeE-LSNP4t4z8-3-6" value="" style="endArrow=none;html=1;fillColor=#f8cecc;strokeColor=#B85450;exitX=1;exitY=0.5;exitDx=0;exitDy=0;curved=1;entryX=0.75;entryY=1;entryDx=0;entryDy=0;strokeWidth=2;dashed=1;dashPattern=1 2;" parent="1" source="M235wbPJO0eQFkBtWyqc-25" target="jf7ATLeE-LSNP4t4z8-3-5" edge="1">
          <mxGeometry width="50" height="50" relative="1" as="geometry">
            <mxPoint x="813.25" y="652.5" as="sourcePoint" />
            <mxPoint x="804.5355339059329" y="343.5355339059329" as="targetPoint" />
            <Array as="points">
              <mxPoint x="1117" y="560" />
            </Array>
          </mxGeometry>
        </mxCell>
        <mxCell id="jf7ATLeE-LSNP4t4z8-3-7" value="" style="endArrow=none;html=1;strokeWidth=4;entryX=1;entryY=0.75;entryDx=0;entryDy=0;exitX=0;exitY=0.25;exitDx=0;exitDy=0;strokeColor=#97D077;dashed=1;dashPattern=1 2;" parent="1" source="jf7ATLeE-LSNP4t4z8-3-5" target="76j5sk3wCB9ZU_lOgHT8-23" edge="1">
          <mxGeometry width="50" height="50" relative="1" as="geometry">
            <mxPoint x="802" y="200" as="sourcePoint" />
            <mxPoint x="802" y="130" as="targetPoint" />
          </mxGeometry>
        </mxCell>
        <mxCell id="jf7ATLeE-LSNP4t4z8-3-8" value="" style="endArrow=none;html=1;fillColor=#dae8fc;exitX=0;exitY=0.5;exitDx=0;exitDy=0;curved=1;entryX=0;entryY=0.5;entryDx=0;entryDy=0;strokeWidth=4;dashed=1;dashPattern=1 2;strokeColor=#90BEFF;" parent="1" source="M235wbPJO0eQFkBtWyqc-1" target="76j5sk3wCB9ZU_lOgHT8-6" edge="1">
          <mxGeometry width="50" height="50" relative="1" as="geometry">
            <mxPoint x="1007" y="735" as="sourcePoint" />
            <mxPoint x="1037" y="240" as="targetPoint" />
            <Array as="points">
              <mxPoint x="-103" y="410" />
            </Array>
          </mxGeometry>
        </mxCell>
        <mxCell id="jf7ATLeE-LSNP4t4z8-3-9" value="&lt;font color=&quot;#000000&quot;&gt;Xpression-III&lt;br&gt;+&lt;br&gt;Ortofon&lt;br&gt;2M Blue&lt;br&gt;&lt;/font&gt;" style="ellipse;whiteSpace=wrap;html=1;aspect=fixed;strokeColor=#A8A8A8;fontColor=#A8A8A8;" parent="1" vertex="1">
          <mxGeometry x="947" y="40" width="100" height="100" as="geometry" />
        </mxCell>
        <mxCell id="jf7ATLeE-LSNP4t4z8-3-10" value="" style="endArrow=none;html=1;fillColor=#f8cecc;strokeColor=#B85450;exitX=1;exitY=0.5;exitDx=0;exitDy=0;curved=1;entryX=1;entryY=0.5;entryDx=0;entryDy=0;strokeWidth=2;dashed=1;dashPattern=1 2;" parent="1" source="M235wbPJO0eQFkBtWyqc-25" target="jf7ATLeE-LSNP4t4z8-3-9" edge="1">
          <mxGeometry width="50" height="50" relative="1" as="geometry">
            <mxPoint x="1007" y="735" as="sourcePoint" />
            <mxPoint x="1037" y="240" as="targetPoint" />
            <Array as="points">
              <mxPoint x="1137" y="560" />
            </Array>
          </mxGeometry>
        </mxCell>
        <mxCell id="jf7ATLeE-LSNP4t4z8-3-11" value="" style="endArrow=none;html=1;strokeWidth=2;entryX=0.5;entryY=1;entryDx=0;entryDy=0;exitX=0.5;exitY=0;exitDx=0;exitDy=0;strokeColor=#97D077;" parent="1" source="jf7ATLeE-LSNP4t4z8-3-5" target="jf7ATLeE-LSNP4t4z8-3-9" edge="1">
          <mxGeometry width="50" height="50" relative="1" as="geometry">
            <mxPoint x="947" y="195" as="sourcePoint" />
            <mxPoint x="867" y="135" as="targetPoint" />
          </mxGeometry>
        </mxCell>
        <mxCell id="jf7ATLeE-LSNP4t4z8-3-13" value="TRY DATA ONLY CABLE" style="shape=callout;whiteSpace=wrap;html=1;perimeter=calloutPerimeter;strokeColor=#d79b00;fillColor=#ffcd28;fontSize=8;gradientColor=#ffa500;" parent="1" vertex="1">
          <mxGeometry x="687" y="250" width="120" height="50" as="geometry" />
        </mxCell>
        <mxCell id="e_pCMJFblcvT9HseUp_T-1" value="Untitled Layer" parent="0" />
      </root>
    </mxGraphModel>
  </diagram>
</mxfile>
